<svg version="1.1" id="Layer_1" xmlns="http://www.w3.org/2000/svg" xmlns:xlink="http://www.w3.org/1999/xlink" x="0px" y="0px"
	 width="100%" viewBox="0 0 406 349" enable-background="new 0 0 406 349" xml:space="preserve">
<path fill="#FFFFFF" opacity="1.000000" stroke="none" 
	d="
M247.000000,350.000000 
	C164.666687,350.000000 82.833359,350.000000 1.000033,350.000000 
	C1.000022,233.666702 1.000022,117.333405 1.000011,1.000080 
	C136.333267,1.000053 271.666534,1.000053 406.999878,1.000027 
	C406.999908,117.333252 406.999908,233.666504 406.999939,349.999878 
	C353.833344,350.000000 300.666656,350.000000 247.000000,350.000000 
M184.227478,41.983311 
	C180.471680,44.284046 176.715897,46.584782 172.235367,48.983967 
	C168.796082,50.946972 165.356812,52.909977 161.294739,55.195404 
	C158.159653,57.113861 155.024582,59.032322 151.181763,61.013206 
	C148.406387,62.656269 145.631012,64.299332 142.245987,66.251572 
	C139.794632,67.816185 137.343262,69.380798 134.179993,71.002251 
	C130.590302,73.259918 125.387398,74.222923 125.134277,79.512474 
	C124.857040,85.305969 130.344620,86.277885 134.105072,88.546013 
	C134.640884,88.869186 135.335098,88.929787 136.263062,89.728493 
	C138.812317,91.195770 141.361588,92.663048 144.260605,94.737221 
	C147.151581,96.197304 150.042572,97.657387 153.277634,99.713783 
	C155.806961,101.161217 158.336273,102.608643 161.171753,104.693245 
	C164.448746,107.183777 165.118622,109.899277 161.261490,113.234718 
	C158.821136,114.779823 156.380783,116.324928 153.455933,117.992279 
	C153.455933,117.992279 152.974945,118.127670 152.444778,118.102356 
	C152.248154,118.384865 152.051514,118.667374 151.241898,119.252823 
	C148.810349,120.801437 146.378799,122.350044 143.454178,124.004883 
	C143.292786,124.051971 143.131409,124.099068 142.451630,124.135864 
	C142.257416,124.411491 142.063217,124.687111 141.175903,124.993027 
	C139.452225,126.042770 137.728546,127.092522 135.318710,128.222977 
	C131.943069,131.558289 124.827744,131.650604 125.202225,138.045654 
	C125.556435,144.094772 131.418137,145.172974 136.249313,147.710632 
	C138.118912,148.823853 139.988525,149.937057 142.051407,151.540909 
	C142.358185,151.651352 142.664978,151.761780 143.449738,152.003113 
	C143.449738,152.003113 143.931946,152.117508 144.285141,152.714172 
	C147.153625,154.161240 150.022110,155.608307 153.242294,157.660919 
	C156.127747,159.124420 159.013184,160.587936 162.209320,162.681107 
	C165.455505,164.492386 168.701675,166.303665 172.288910,168.716354 
	C175.485245,170.495529 178.681580,172.274719 182.213531,174.679474 
	C185.478439,176.399704 188.743332,178.119949 192.633804,180.136826 
	C194.382751,181.103882 196.131699,182.070953 198.067245,183.524979 
	C198.368408,183.629257 198.669586,183.733521 199.456696,183.998901 
	C199.622604,184.038849 199.788498,184.078796 200.249176,184.751846 
	C204.477005,187.208725 208.704834,189.665619 213.268051,192.767624 
	C215.840714,193.455322 218.413376,194.143036 221.706985,194.976013 
	C223.486694,194.021713 225.266403,193.067413 227.736237,192.011276 
	C229.153015,191.292587 230.569809,190.573914 232.627747,189.819763 
	C233.767517,188.918823 234.907288,188.017883 236.729004,187.015396 
	C238.169968,186.044571 239.610931,185.073746 241.752991,184.003082 
	C243.541809,183.024734 245.330612,182.046387 247.731552,180.761520 
	C249.864777,179.524582 251.997986,178.287643 254.716568,176.762177 
	C256.162933,175.883179 257.609283,175.004181 259.669342,173.804031 
	C261.821533,172.561066 263.973724,171.318085 266.725983,169.753723 
	C268.848419,168.511536 270.970886,167.269348 273.691589,165.750412 
	C275.173767,164.855148 276.655945,163.959885 278.722076,162.746078 
	C280.868378,161.186142 283.014679,159.626205 285.672211,157.640564 
	C286.103485,156.945236 286.461212,156.189224 286.976959,155.563553 
	C296.540405,143.962265 295.344269,128.939377 283.739532,118.305420 
	C281.854614,116.853470 279.969696,115.401527 277.749573,113.307724 
	C275.165985,110.121361 275.944519,107.057472 278.680176,103.759766 
	C280.468750,102.200912 282.257324,100.642059 284.653992,98.760826 
	C285.669952,97.476509 286.626953,96.139969 287.711182,94.916161 
	C296.074097,85.476746 294.829010,69.230629 284.975342,60.269810 
	C282.313416,58.226437 279.651459,56.183060 276.416779,53.850925 
	C275.316559,53.222412 274.216370,52.593899 272.737762,51.391392 
	C270.528168,50.239826 268.318604,49.088264 265.728546,47.365517 
	C263.504700,46.200748 261.280823,45.035984 258.704956,43.322979 
	C257.173401,42.530975 255.641815,41.738972 253.747360,40.361813 
	C251.535522,39.221645 249.323685,38.081478 246.758865,36.361492 
	C244.833939,35.285255 242.909012,34.209023 240.360001,32.833057 
	C238.922165,32.183334 237.484344,31.533617 235.771179,30.302029 
	C234.510605,29.589918 233.250015,28.877808 231.391800,27.870010 
	C230.295975,27.228666 229.200165,26.587322 227.744476,25.323427 
	C225.491669,24.605391 223.238861,23.887356 220.196136,23.040882 
	C218.452820,23.412289 216.709488,23.783697 214.396561,24.152325 
	C214.187881,24.465868 213.979218,24.779411 213.359070,25.178610 
	C213.359070,25.178610 213.150146,25.543314 212.643646,25.865988 
	C211.759872,26.297014 210.876114,26.728043 209.298187,27.232441 
	C206.176163,29.114298 203.054123,30.996155 199.300339,33.180435 
	C196.831451,34.770699 194.362564,36.360958 191.189453,38.004154 
	C189.110275,39.295746 187.031082,40.587337 184.227478,41.983311 
M206.146439,256.000885 
	C205.404434,256.101837 204.662430,256.202820 203.920425,256.303772 
	C203.931274,256.459137 203.942139,256.614502 203.952988,256.769867 
	C215.651093,256.769867 227.349197,256.769867 239.047302,256.769867 
	C239.050537,256.513245 239.053787,256.256653 239.057022,256.000031 
	C228.374557,256.000031 217.692108,256.000031 206.146439,256.000885 
M260.000702,242.152374 
	C260.000702,253.078659 260.000702,264.004944 260.000702,274.931213 
	C260.235931,274.926331 260.471130,274.921417 260.706360,274.916534 
	C260.706360,263.253967 260.706360,251.591385 260.706360,239.928818 
	C260.584656,239.924530 260.462952,239.920242 260.341217,239.915955 
	C260.229797,240.387939 260.118378,240.859924 260.000702,242.152374 
M218.485703,249.999725 
	C222.431366,249.999725 226.377029,249.999725 230.322693,249.999725 
	C230.314743,249.771637 230.306808,249.543549 230.298859,249.315460 
	C221.430161,249.315460 212.561478,249.315460 203.692780,249.315460 
	C203.691803,249.543549 203.690826,249.771637 203.689850,249.999725 
	C208.291534,249.999725 212.893234,249.999725 218.485703,249.999725 
z"/>
<path fill="#4153F3" opacity="1.000000" stroke="none" 
	d="
M213.150146,25.543312 
	C213.150146,25.543314 213.359070,25.178610 213.806946,25.032848 
	C214.491943,24.643093 214.729065,24.399101 214.966171,24.155106 
	C216.709488,23.783697 218.452820,23.412289 220.595215,23.562323 
	C220.995865,42.812748 220.946350,61.542130 221.090530,80.270012 
	C221.102798,81.864197 222.406265,83.448448 222.925537,85.395012 
	C222.200607,90.500359 221.660034,95.248009 221.070068,100.462013 
	C221.012665,105.386337 220.894867,109.847504 221.025238,114.301414 
	C221.177765,119.511925 221.546570,124.716110 221.901154,130.244476 
	C222.003296,131.006729 222.025803,131.447571 221.880371,132.279724 
	C221.474548,134.622345 221.035843,136.573059 221.029984,138.525040 
	C220.973663,157.293488 220.990295,176.062149 220.986038,194.830750 
	C218.413376,194.143036 215.840714,193.455322 213.122162,191.969696 
	C212.984558,176.651154 213.031647,162.130341 212.954285,147.610199 
	C212.944077,145.692810 212.299042,143.778809 212.095612,141.548813 
	C212.479996,139.197739 212.716797,137.161087 212.968018,134.647888 
	C212.988693,119.340042 213.033539,104.508537 212.954086,89.677696 
	C212.943710,87.741997 212.294342,85.809731 212.098846,83.547974 
	C212.819870,81.187973 213.382965,79.155853 214.008942,76.701103 
	C214.377609,75.001610 214.943726,73.725914 214.949371,72.447731 
	C215.012894,58.050751 215.035522,43.653000 214.911057,29.256817 
	C214.900299,28.014000 213.763748,26.780918 213.150146,25.543312 
z"/>
<path fill="#3C7DF7" opacity="1.000000" stroke="none" 
	d="
M161.884369,112.951660 
	C165.118622,109.899277 164.448746,107.183777 161.378113,104.183426 
	C162.056305,101.997025 162.922287,100.323959 162.937271,98.643318 
	C163.051590,85.817627 163.041275,72.990181 162.951813,60.164108 
	C162.939484,58.398083 162.278320,56.636581 161.917542,54.872986 
	C165.356812,52.909977 168.796082,50.946972 172.614990,49.329956 
	C173.333084,51.727448 173.671555,53.778946 173.700806,55.989346 
	C172.540726,57.466259 171.689880,58.784271 170.543427,60.387299 
	C170.162750,71.419502 170.022186,82.166733 170.032898,92.913818 
	C170.035477,95.497650 170.540085,98.080994 170.903366,101.019424 
	C171.664627,102.302498 172.336349,103.230705 172.996185,104.545349 
	C173.002975,107.995537 173.021652,111.059280 172.897385,114.439941 
	C172.117462,116.178589 171.480484,117.600311 170.518280,119.290604 
	C170.127945,131.331497 170.040649,143.103806 170.035629,154.876160 
	C170.035187,155.932480 170.567169,156.989014 170.925537,158.395248 
	C171.668488,159.885757 172.337799,161.026459 173.004883,162.554123 
	C172.651031,164.665695 172.299454,166.390335 171.947861,168.114960 
	C168.701675,166.303665 165.455505,164.492386 162.368286,162.080688 
	C162.657761,145.847504 162.798798,130.214813 162.874680,114.581802 
	C162.877304,114.040039 162.229187,113.495110 161.884369,112.951660 
z"/>
<path fill="#BF85D3" opacity="1.000000" stroke="none" 
	d="
M273.093323,166.027176 
	C270.970886,167.269348 268.848419,168.511536 266.107666,169.627075 
	C265.326263,167.700790 265.026001,165.901474 265.021545,164.101440 
	C264.983856,148.798019 265.039490,133.494247 264.954010,118.191200 
	C264.942261,116.090149 264.309418,113.992561 263.970886,111.549370 
	C263.964020,109.526527 263.950348,107.847679 263.999695,105.743286 
	C264.375153,103.036148 264.945984,100.755943 264.958160,98.472755 
	C265.038971,83.335632 264.964813,68.197685 265.048737,53.060604 
	C265.058197,51.350727 265.739349,49.644577 266.109009,47.936699 
	C268.318604,49.088264 270.528168,50.239826 272.519653,51.769478 
	C271.868164,53.291973 271.058258,54.435673 271.056122,55.580891 
	C270.989105,91.132263 270.979401,126.683846 271.088959,162.235001 
	C271.092834,163.501099 272.395813,164.763214 273.093323,166.027176 
z"/>
<path fill="#CE8BCF" opacity="1.000000" stroke="none" 
	d="
M273.392456,165.888794 
	C272.395813,164.763214 271.092834,163.501099 271.088959,162.235001 
	C270.979401,126.683846 270.989105,91.132263 271.056122,55.580891 
	C271.058258,54.435673 271.868164,53.291973 272.708862,52.056473 
	C274.216370,52.593899 275.316559,53.222412 276.707031,54.451393 
	C276.998169,69.673798 276.963470,84.295937 277.047852,98.917397 
	C277.057709,100.627960 277.724670,102.334732 278.087036,104.043259 
	C275.944519,107.057472 275.165985,110.121361 277.605042,113.918259 
	C277.336517,130.173813 277.202057,145.818787 277.133270,161.464050 
	C277.130920,161.996094 277.788269,162.531052 278.138153,163.064636 
	C276.655945,163.959885 275.173767,164.855148 273.392456,165.888794 
z"/>
<path fill="#2C4EF8" opacity="1.000000" stroke="none" 
	d="
M211.948013,141.863235 
	C212.299042,143.778809 212.944077,145.692810 212.954285,147.610199 
	C213.031647,162.130341 212.984558,176.651154 212.954468,191.647125 
	C208.704834,189.665619 204.477005,187.208725 200.115494,183.958862 
	C199.974487,171.735626 199.967163,160.305374 200.127090,148.567810 
	C204.178879,146.128067 208.063446,143.995651 211.948013,141.863235 
z"/>
<path fill="#2A4DF9" opacity="1.000000" stroke="none" 
	d="
M199.932083,32.878010 
	C203.054123,30.996155 206.176163,29.114298 209.647980,27.653912 
	C209.985474,43.425060 209.973190,58.774738 209.601013,74.066330 
	C206.140366,72.049057 203.039627,70.089867 199.957626,67.654175 
	C199.961609,55.744446 199.946838,44.311226 199.932083,32.878010 
z"/>
<path fill="#A079DB" opacity="1.000000" stroke="none" 
	d="
M259.055664,174.125183 
	C257.609283,175.004181 256.162933,175.883179 254.017151,176.811493 
	C252.878693,175.222321 252.068832,173.586212 252.058350,171.945007 
	C251.960754,156.676895 252.040100,141.407684 251.954666,126.139412 
	C251.942932,124.041946 251.310516,121.947968 251.121307,119.552925 
	C253.509171,118.128761 255.741211,117.004036 258.133911,116.273544 
	C258.529297,118.612679 258.959991,120.556755 258.968109,122.502594 
	C259.039917,139.709946 259.036713,156.917618 259.055664,174.125183 
z"/>
<path fill="#9173DF" opacity="1.000000" stroke="none" 
	d="
M247.111847,36.941315 
	C249.323685,38.081478 251.535522,39.221645 253.612000,40.939255 
	C253.317535,43.316353 253.025238,45.115654 253.020477,46.915714 
	C252.982620,61.212540 253.053482,75.509895 252.952652,89.806114 
	C252.933060,92.585907 252.310242,95.361458 251.617020,98.073318 
	C249.166992,96.719467 247.065613,95.431252 245.125549,93.747398 
	C245.524765,91.396362 245.961655,89.441727 245.969055,87.485451 
	C246.026337,72.345154 245.965378,57.204342 246.049454,42.064289 
	C246.058945,40.354717 246.741425,38.648880 247.111847,36.941315 
z"/>
<path fill="#4088F7" opacity="1.000000" stroke="none" 
	d="
M161.606140,55.034195 
	C162.278320,56.636581 162.939484,58.398083 162.951813,60.164108 
	C163.041275,72.990181 163.051590,85.817627 162.937271,98.643318 
	C162.922287,100.323959 162.056305,101.997025 161.225037,103.864838 
	C158.336273,102.608643 155.806961,101.161217 153.278534,99.024727 
	C153.497192,97.712616 153.901489,97.090599 153.904938,96.466354 
	C153.963913,85.829430 154.040680,75.191338 153.900696,64.556305 
	C153.884750,63.345848 152.590851,62.152218 151.889511,60.950783 
	C155.024582,59.032322 158.159653,57.113861 161.606140,55.034195 
z"/>
<path fill="#4088F7" opacity="1.000000" stroke="none" 
	d="
M161.572937,113.093185 
	C162.229187,113.495110 162.877304,114.040039 162.874680,114.581802 
	C162.798798,130.214813 162.657761,145.847504 162.212936,161.765839 
	C159.013184,160.587936 156.127747,159.124420 153.382019,157.073059 
	C153.661316,143.613464 153.800873,130.741760 153.940430,117.870041 
	C156.380783,116.324928 158.821136,114.779823 161.572937,113.093185 
z"/>
<path fill="#515AEF" opacity="1.000000" stroke="none" 
	d="
M223.109894,85.037308 
	C222.406265,83.448448 221.102798,81.864197 221.090530,80.270012 
	C220.946350,61.542130 220.995865,42.812748 220.990173,23.626541 
	C223.238861,23.887356 225.491669,24.605391 227.609741,25.920246 
	C227.316452,28.318501 227.024002,30.119652 227.020157,31.921417 
	C226.982437,49.558029 226.992828,67.194748 226.688293,84.817780 
	C225.294662,84.881851 224.202286,84.959587 223.109894,85.037308 
z"/>
<path fill="#515AEF" opacity="1.000000" stroke="none" 
	d="
M221.346512,194.903381 
	C220.990295,176.062149 220.973663,157.293488 221.029984,138.525040 
	C221.035843,136.573059 221.474548,134.622345 222.185669,132.412781 
	C223.762207,132.726440 224.865494,133.298370 226.129791,134.265076 
	C226.526993,136.604385 226.960693,138.548096 226.968460,140.493530 
	C227.037292,157.699875 227.030533,174.906540 227.046097,192.113098 
	C225.266403,193.067413 223.486694,194.021713 221.346512,194.903381 
z"/>
<path fill="#B07FD7" opacity="1.000000" stroke="none" 
	d="
M259.362488,173.964615 
	C259.036713,156.917618 259.039917,139.709946 258.968109,122.502594 
	C258.959991,120.556755 258.529297,118.612679 258.280060,115.977081 
	C260.165070,114.155373 262.064606,113.024376 263.964111,111.893372 
	C264.309418,113.992561 264.942261,116.090149 264.954010,118.191200 
	C265.039490,133.494247 264.983856,148.798019 265.021545,164.101440 
	C265.026001,165.901474 265.326263,167.700790 265.807678,169.787781 
	C263.973724,171.318085 261.821533,172.561066 259.362488,173.964615 
z"/>
<path fill="#A179DB" opacity="1.000000" stroke="none" 
	d="
M251.965668,98.138962 
	C252.310242,95.361458 252.933060,92.585907 252.952652,89.806114 
	C253.053482,75.509895 252.982620,61.212540 253.020477,46.915714 
	C253.025238,45.115654 253.317535,43.316353 253.793427,41.231834 
	C255.641815,41.738972 257.173401,42.530975 258.862579,44.076118 
	C259.004547,63.922756 258.988892,83.016251 258.624847,102.045898 
	C256.172852,100.701019 254.069260,99.419991 251.965668,98.138962 
z"/>
<path fill="#9072DF" opacity="1.000000" stroke="none" 
	d="
M250.965469,119.852371 
	C251.310516,121.947968 251.942932,124.041946 251.954666,126.139412 
	C252.040100,141.407684 251.960754,156.676895 252.058350,171.945007 
	C252.068832,173.586212 252.878693,175.222321 253.724457,176.955750 
	C251.997986,178.287643 249.864777,179.524582 247.108765,180.628448 
	C246.323990,178.692307 246.025299,176.889511 246.021179,175.086075 
	C245.980850,157.424103 245.989639,139.762009 246.294067,121.944305 
	C248.057617,121.143219 249.511551,120.497795 250.965469,119.852371 
z"/>
<path fill="#816DE3" opacity="1.000000" stroke="none" 
	d="
M245.984451,122.099960 
	C245.989639,139.762009 245.980850,157.424103 246.021179,175.086075 
	C246.025299,176.889511 246.323990,178.692307 246.802704,180.781708 
	C245.330612,182.046387 243.541809,183.024734 241.231903,183.662048 
	C240.474274,181.376007 240.040115,179.431824 240.032150,177.485886 
	C239.961700,160.268021 239.966843,143.049850 240.130463,125.556168 
	C242.202332,124.220367 244.093384,123.160156 245.984451,122.099960 
z"/>
<path fill="#B07FD7" opacity="1.000000" stroke="none" 
	d="
M258.973236,102.109756 
	C258.988892,83.016251 259.004547,63.922756 259.038574,44.350235 
	C261.280823,45.035984 263.504700,46.200748 265.918762,47.651108 
	C265.739349,49.644577 265.058197,51.350727 265.048737,53.060604 
	C264.964813,68.197685 265.038971,83.335632 264.958160,98.472755 
	C264.945984,100.755943 264.375153,103.036148 263.721344,105.565628 
	C261.911072,104.578934 260.442139,103.344345 258.973236,102.109756 
z"/>
<path fill="#816DE3" opacity="1.000000" stroke="none" 
	d="
M246.935364,36.651405 
	C246.741425,38.648880 246.058945,40.354717 246.049454,42.064289 
	C245.965378,57.204342 246.026337,72.345154 245.969055,87.485451 
	C245.961655,89.441727 245.524765,91.396362 244.784393,93.682159 
	C242.850113,93.306396 241.418274,92.600243 239.992004,91.432091 
	C239.998779,74.308731 239.957550,57.647133 240.045135,40.986214 
	C240.058899,38.366829 240.656464,35.750519 240.984085,33.132790 
	C242.909012,34.209023 244.833939,35.285255 246.935364,36.651405 
z"/>
<path fill="#DE91CB" opacity="1.000000" stroke="none" 
	d="
M278.430115,162.905365 
	C277.788269,162.531052 277.130920,161.996094 277.133270,161.464050 
	C277.202057,145.818787 277.336517,130.173813 277.772614,114.239182 
	C279.969696,115.401527 281.854614,116.853470 283.876221,119.086342 
	C284.008606,130.918350 283.955444,141.969879 284.051910,153.020081 
	C284.066650,154.705246 284.773987,156.384369 285.161011,158.066284 
	C283.014679,159.626205 280.868378,161.186142 278.430115,162.905365 
z"/>
<path fill="#4594F6" opacity="1.000000" stroke="none" 
	d="
M153.698181,117.931160 
	C153.800873,130.741760 153.661316,143.613464 153.206177,156.770279 
	C150.022110,155.608307 147.153625,154.161240 144.282043,152.024979 
	C144.168381,142.190079 144.057816,133.044357 143.947235,123.898651 
	C146.378799,122.350044 148.810349,120.801437 151.781937,119.036049 
	C152.630875,118.674904 152.848526,118.444366 152.974945,118.127670 
	C152.974945,118.127670 153.455933,117.992279 153.698181,117.931160 
z"/>
<path fill="#4594F6" opacity="1.000000" stroke="none" 
	d="
M151.535645,60.981995 
	C152.590851,62.152218 153.884750,63.345848 153.900696,64.556305 
	C154.040680,75.191338 153.963913,85.829430 153.904938,96.466354 
	C153.901489,97.090599 153.497192,97.712616 153.106491,98.726570 
	C150.042572,97.657387 147.151581,96.197304 144.263977,94.043648 
	C144.490463,85.077202 144.776443,76.804840 144.842606,68.530708 
	C144.849472,67.673286 143.549316,66.805412 142.855621,65.942383 
	C145.631012,64.299332 148.406387,62.656269 151.535645,60.981995 
z"/>
<path fill="#5F5FEC" opacity="1.000000" stroke="none" 
	d="
M227.391174,192.062195 
	C227.030533,174.906540 227.037292,157.699875 226.968460,140.493530 
	C226.960693,138.548096 226.526993,136.604385 226.285004,133.974869 
	C227.850937,132.581909 229.422653,131.873962 231.059143,131.569672 
	C231.415741,133.910553 231.953979,135.846909 231.960876,137.785126 
	C232.022629,155.141647 231.990860,172.498489 231.986588,189.855240 
	C230.569809,190.573914 229.153015,191.292587 227.391174,192.062195 
z"/>
<path fill="#EF98C7" opacity="1.000000" stroke="none" 
	d="
M285.085724,60.966457 
	C294.829010,69.230629 296.074097,85.476746 287.711182,94.916161 
	C286.626953,96.139969 285.669952,97.476509 284.177856,98.531494 
	C283.493744,86.455574 283.256348,74.609200 283.164520,62.761703 
	C283.159912,62.168289 284.416412,61.565098 285.085724,60.966457 
z"/>
<path fill="#5F5FEC" opacity="1.000000" stroke="none" 
	d="
M226.989532,84.831436 
	C226.992828,67.194748 226.982437,49.558029 227.020157,31.921417 
	C227.024002,30.119652 227.316452,28.318501 227.789673,26.231522 
	C229.200165,26.587322 230.295975,27.228666 231.694031,28.474876 
	C231.997314,45.327400 232.046616,61.575336 231.952805,77.822449 
	C231.936783,80.593857 231.308289,83.361732 230.612885,86.070389 
	C229.171860,85.616837 228.080704,85.224136 226.989532,84.831436 
z"/>
<path fill="#DD91CB" opacity="1.000000" stroke="none" 
	d="
M285.030518,60.618134 
	C284.416412,61.565098 283.159912,62.168289 283.164520,62.761703 
	C283.256348,74.609200 283.493744,86.455574 283.873810,98.692688 
	C282.257324,100.642059 280.468750,102.200912 278.383606,103.901512 
	C277.724670,102.334732 277.057709,100.627960 277.047852,98.917397 
	C276.963470,84.295937 276.998169,69.673798 276.993408,54.595772 
	C279.651459,56.183060 282.313416,58.226437 285.030518,60.618134 
z"/>
<path fill="#F098C6" opacity="1.000000" stroke="none" 
	d="
M285.416626,157.853424 
	C284.773987,156.384369 284.066650,154.705246 284.051910,153.020081 
	C283.955444,141.969879 284.008606,130.918350 284.026306,119.390854 
	C295.344269,128.939377 296.540405,143.962265 286.976959,155.563553 
	C286.461212,156.189224 286.103485,156.945236 285.416626,157.853424 
z"/>
<path fill="#2D58F9" opacity="1.000000" stroke="none" 
	d="
M199.959839,148.875137 
	C199.967163,160.305374 199.974487,171.735626 199.968109,183.642303 
	C199.788498,184.078796 199.622604,184.038849 199.083344,183.723633 
	C198.477493,183.222809 198.201035,183.086029 197.880646,183.038010 
	C196.131699,182.070953 194.382751,181.103882 192.318176,179.530548 
	C191.987045,170.573425 191.971542,162.222580 192.126831,153.569763 
	C194.851700,151.803574 197.405777,150.339355 199.959839,148.875137 
z"/>
<path fill="#354FF6" opacity="1.000000" stroke="none" 
	d="
M209.960907,74.124420 
	C209.973190,58.774738 209.985474,43.425060 209.995056,27.617226 
	C210.876114,26.728043 211.759872,26.297014 212.896896,25.704651 
	C213.763748,26.780918 214.900299,28.014000 214.911057,29.256817 
	C215.035522,43.653000 215.012894,58.050751 214.949371,72.447731 
	C214.943726,73.725914 214.377609,75.001610 213.709595,76.574516 
	C212.218552,75.955185 211.089722,75.039803 209.960907,74.124420 
z"/>
<path fill="#6A64E9" opacity="1.000000" stroke="none" 
	d="
M232.307159,189.837494 
	C231.990860,172.498489 232.022629,155.141647 231.960876,137.785126 
	C231.953979,135.846909 231.415741,133.910553 231.364258,131.402283 
	C233.392426,129.848221 235.180252,128.865204 236.823425,128.280731 
	C236.452515,130.130081 236.031952,131.580597 236.029587,133.031784 
	C236.000092,151.060120 236.031403,169.088547 236.047073,187.116943 
	C234.907288,188.017883 233.767517,188.918823 232.307159,189.837494 
z"/>
<path fill="#6A64E9" opacity="1.000000" stroke="none" 
	d="
M230.962738,86.131241 
	C231.308289,83.361732 231.936783,80.593857 231.952805,77.822449 
	C232.046616,61.575336 231.997314,45.327400 231.992859,28.622721 
	C233.250015,28.877808 234.510605,29.589918 235.894470,31.069740 
	C235.998535,50.937675 235.979279,70.037903 235.621918,89.080414 
	C233.843460,88.058884 232.403091,87.095062 230.962738,86.131241 
z"/>
<path fill="#7568E6" opacity="1.000000" stroke="none" 
	d="
M236.388031,187.066177 
	C236.031403,169.088547 236.000092,151.060120 236.029587,133.031784 
	C236.031952,131.580597 236.452515,130.130081 236.971252,128.006134 
	C238.159042,126.832588 239.054352,126.332184 239.949646,125.831772 
	C239.966843,143.049850 239.961700,160.268021 240.032150,177.485886 
	C240.040115,179.431824 240.474274,181.376007 240.881348,183.711960 
	C239.610931,185.073746 238.169968,186.044571 236.388031,187.066177 
z"/>
<path fill="#7568E6" opacity="1.000000" stroke="none" 
	d="
M235.960022,89.138123 
	C235.979279,70.037903 235.998535,50.937675 236.032135,31.360676 
	C237.484344,31.533617 238.922165,32.183334 240.672043,32.982922 
	C240.656464,35.750519 240.058899,38.366829 240.045135,40.986214 
	C239.957550,57.647133 239.998779,74.308731 239.682297,91.369125 
	C238.231369,90.891472 237.095703,90.014801 235.960022,89.138123 
z"/>
<path fill="#2D58F9" opacity="1.000000" stroke="none" 
	d="
M199.616211,33.029221 
	C199.946838,44.311226 199.961609,55.744446 199.605423,67.595772 
	C197.142426,66.715744 195.050400,65.417603 192.971069,63.643486 
	C192.989182,57.427673 193.108459,51.684696 192.949600,45.949421 
	C192.875519,43.275654 192.262436,40.616817 191.893677,37.951218 
	C194.362564,36.360958 196.831451,34.770699 199.616211,33.029221 
z"/>
<path fill="#499FF6" opacity="1.000000" stroke="none" 
	d="
M142.550812,66.096977 
	C143.549316,66.805412 144.849472,67.673286 144.842606,68.530708 
	C144.776443,76.804840 144.490463,85.077202 144.089096,93.740204 
	C141.361588,92.663048 138.812317,91.195770 136.123352,88.944321 
	C135.619720,82.421898 135.255814,76.683655 134.891891,70.945404 
	C137.343262,69.380798 139.794632,67.816185 142.550812,66.096977 
z"/>
<path fill="#499FF6" opacity="1.000000" stroke="none" 
	d="
M143.700714,123.951767 
	C144.057816,133.044357 144.168381,142.190079 144.105453,151.726654 
	C143.931946,152.117508 143.449738,152.003113 143.082596,151.732971 
	C142.477982,151.225006 142.192200,151.087479 141.858124,151.050278 
	C139.988525,149.937057 138.118912,148.823853 136.116592,146.934723 
	C135.990875,140.153305 135.997864,134.147781 136.004868,128.142273 
	C137.728546,127.092522 139.452225,126.042770 141.750717,124.908936 
	C142.625732,124.679710 142.840561,124.453484 142.970016,124.146172 
	C143.131409,124.099068 143.292786,124.051971 143.700714,123.951767 
z"/>
<path fill="#3163F8" opacity="1.000000" stroke="none" 
	d="
M191.956039,153.871719 
	C191.971542,162.222580 191.987045,170.573425 192.005402,179.382233 
	C188.743332,178.119949 185.478439,176.399704 182.361938,174.087082 
	C182.341690,168.710831 182.173050,163.926971 182.326080,158.988586 
	C185.750504,157.179947 188.853271,155.525833 191.956039,153.871719 
z"/>
<path fill="#3161F8" opacity="1.000000" stroke="none" 
	d="
M191.541565,37.977684 
	C192.262436,40.616817 192.875519,43.275654 192.949600,45.949421 
	C193.108459,51.684696 192.989182,57.427673 192.610809,63.588982 
	C189.478302,62.380444 186.718765,60.750427 184.123459,58.727890 
	C184.509094,52.849892 184.730484,47.364407 184.951889,41.878929 
	C187.031082,40.587337 189.110275,39.295746 191.541565,37.977684 
z"/>
<path fill="#4DAAF4" opacity="1.000000" stroke="none" 
	d="
M134.535950,70.973831 
	C135.255814,76.683655 135.619720,82.421898 135.969818,88.636032 
	C135.335098,88.929787 134.640884,88.869186 134.105072,88.546013 
	C130.344620,86.277885 124.857040,85.305969 125.134277,79.512474 
	C125.387398,74.222923 130.590302,73.259918 134.535950,70.973831 
z"/>
<path fill="#356CF6" opacity="1.000000" stroke="none" 
	d="
M184.589691,41.931118 
	C184.730484,47.364407 184.509094,52.849892 183.753845,58.672676 
	C180.150009,57.950134 177.080032,56.890289 174.010040,55.830444 
	C173.671555,53.778946 173.333084,51.727448 172.977356,49.280731 
	C176.715897,46.584782 180.471680,44.284046 184.589691,41.931118 
z"/>
<path fill="#4DAAF4" opacity="1.000000" stroke="none" 
	d="
M135.661789,128.182617 
	C135.997864,134.147781 135.990875,140.153305 135.970123,146.634979 
	C131.418137,145.172974 125.556435,144.094772 125.202225,138.045654 
	C124.827744,131.650604 131.943069,131.558289 135.661789,128.182617 
z"/>
<path fill="#366FF7" opacity="1.000000" stroke="none" 
	d="
M182.004410,159.143127 
	C182.173050,163.926971 182.341690,168.710831 182.194122,173.774292 
	C178.681580,172.274719 175.485245,170.495529 172.118378,168.415649 
	C172.299454,166.390335 172.651031,164.665695 173.401688,162.490387 
	C176.535309,161.074173 179.269867,160.108643 182.004410,159.143127 
z"/>
<path fill="#C4C4C4" opacity="1.000000" stroke="none" 
	d="
M206.578033,256.000458 
	C217.692108,256.000031 228.374557,256.000031 239.057022,256.000031 
	C239.053787,256.256653 239.050537,256.513245 239.047302,256.769867 
	C227.349197,256.769867 215.651093,256.769867 203.952988,256.769867 
	C203.942139,256.614502 203.931274,256.459137 203.920425,256.303772 
	C204.662430,256.202820 205.404434,256.101837 206.578033,256.000458 
z"/>
<path fill="#C4C4C4" opacity="1.000000" stroke="none" 
	d="
M260.003815,241.742142 
	C260.118378,240.859924 260.229797,240.387939 260.341217,239.915955 
	C260.462952,239.920242 260.584656,239.924530 260.706360,239.928818 
	C260.706360,251.591385 260.706360,263.253967 260.706360,274.916534 
	C260.471130,274.921417 260.235931,274.926331 260.000702,274.931213 
	C260.000702,264.004944 260.000702,253.078659 260.003815,241.742142 
z"/>
<path fill="#4D4D4D" opacity="1.000000" stroke="none" 
	d="
M217.990326,249.999725 
	C212.893234,249.999725 208.291534,249.999725 203.689850,249.999725 
	C203.690826,249.771637 203.691803,249.543549 203.692780,249.315460 
	C212.561478,249.315460 221.430161,249.315460 230.298859,249.315460 
	C230.306808,249.543549 230.314743,249.771637 230.322693,249.999725 
	C226.377029,249.999725 222.431366,249.999725 217.990326,249.999725 
z"/>
<path fill="#4594F6" opacity="1.000000" stroke="none" 
	d="
M141.954773,151.295593 
	C142.192200,151.087479 142.477982,151.225006 142.843597,151.667542 
	C142.664978,151.761780 142.358185,151.651352 141.954773,151.295593 
z"/>
<path fill="#354FF6" opacity="1.000000" stroke="none" 
	d="
M214.681366,24.153717 
	C214.729065,24.399101 214.491943,24.643093 214.012695,24.990021 
	C213.979218,24.779411 214.187881,24.465868 214.681366,24.153717 
z"/>
<path fill="#4594F6" opacity="1.000000" stroke="none" 
	d="
M142.710815,124.141022 
	C142.840561,124.453484 142.625732,124.679710 142.097260,124.893791 
	C142.063217,124.687111 142.257416,124.411491 142.710815,124.141022 
z"/>
<path fill="#2C4EF8" opacity="1.000000" stroke="none" 
	d="
M197.973938,183.281494 
	C198.201035,183.086029 198.477493,183.222809 198.840378,183.643066 
	C198.669586,183.733521 198.368408,183.629257 197.973938,183.281494 
z"/>
<path fill="#4088F7" opacity="1.000000" stroke="none" 
	d="
M152.709869,118.115013 
	C152.848526,118.444366 152.630875,118.674904 152.088425,118.884583 
	C152.051514,118.667374 152.248154,118.384865 152.709869,118.115013 
z"/>
<path fill="#FFFFFF" opacity="1.000000" stroke="none" 
	d="
M173.700806,55.989346 
	C177.080032,56.890289 180.150009,57.950134 183.589615,59.065193 
	C186.718765,60.750427 189.478302,62.380444 192.598099,64.064964 
	C195.050400,65.417603 197.142426,66.715744 199.586670,68.072281 
	C203.039627,70.089867 206.140366,72.049057 209.601013,74.066330 
	C211.089722,75.039803 212.218552,75.955185 213.646729,76.997154 
	C213.382965,79.155853 212.819870,81.187973 211.741852,83.604721 
	C207.110428,86.639580 202.993912,89.289810 198.525864,91.971252 
	C196.101303,93.296997 194.028275,94.591537 191.593567,95.938133 
	C188.167435,97.714134 185.102966,99.438080 181.679016,101.196472 
	C178.549057,102.206917 175.778564,103.182915 173.008072,104.158920 
	C172.336349,103.230705 171.664627,102.302498 170.947388,100.581085 
	C170.880905,86.559349 170.859955,73.330811 170.839020,60.102280 
	C171.689880,58.784271 172.540726,57.466259 173.700806,55.989346 
z"/>
<path fill="#FFFFFF" opacity="1.000000" stroke="none" 
	d="
M182.326080,158.988586 
	C179.269867,160.108643 176.535309,161.074173 173.403931,162.103439 
	C172.337799,161.026459 171.668488,159.885757 170.991913,157.923431 
	C170.937607,144.408554 170.890564,131.715302 170.843536,119.022041 
	C171.480484,117.600311 172.117462,116.178589 173.291855,114.384750 
	C176.232895,114.620323 178.636490,115.227989 181.352570,115.998123 
	C185.094803,118.144783 188.524582,120.128975 192.120697,122.417557 
	C194.859344,124.096497 197.431641,125.471039 200.325150,126.998993 
	C204.748764,129.809738 208.851181,132.467087 212.953583,135.124435 
	C212.716797,137.161087 212.479996,139.197739 212.095612,141.548813 
	C208.063446,143.995651 204.178879,146.128067 200.127075,148.567810 
	C197.405777,150.339355 194.851700,151.803574 192.126831,153.569763 
	C188.853271,155.525833 185.750504,157.179947 182.326080,158.988586 
z"/>
<path fill="#FFFFFF" opacity="1.000000" stroke="none" 
	d="
M235.621918,89.080414 
	C237.095703,90.014801 238.231369,90.891472 239.676758,91.831116 
	C241.418274,92.600243 242.850113,93.306396 244.623077,94.077789 
	C247.065613,95.431252 249.166992,96.719467 251.617020,98.073318 
	C254.069260,99.419991 256.172852,100.701019 258.624847,102.045898 
	C260.442139,103.344345 261.911072,104.578934 263.658325,105.991180 
	C263.950348,107.847679 263.964020,109.526527 263.970886,111.549370 
	C262.064606,113.024376 260.165070,114.155373 258.119385,115.582840 
	C255.741211,117.004036 253.509171,118.128761 251.121307,119.552925 
	C249.511551,120.497795 248.057617,121.143219 246.294067,121.944298 
	C244.093384,123.160156 242.202332,124.220367 240.130463,125.556168 
	C239.054352,126.332184 238.159042,126.832588 237.115906,127.607597 
	C235.180252,128.865204 233.392426,129.848221 231.299484,130.998627 
	C229.422653,131.873962 227.850937,132.581909 226.123993,133.580078 
	C224.865494,133.298370 223.762207,132.726440 222.353622,132.021454 
	C222.025803,131.447571 222.003296,131.006729 221.967316,129.783646 
	C221.969986,122.513405 222.081680,116.023643 221.961533,109.538185 
	C221.902512,106.353233 221.413727,103.176247 221.119461,99.995651 
	C221.660034,95.248009 222.200607,90.500359 222.925537,85.395020 
	C224.202286,84.959587 225.294662,84.881851 226.688293,84.817780 
	C228.080704,85.224136 229.171860,85.616837 230.612885,86.070389 
	C232.403091,87.095062 233.843460,88.058884 235.621918,89.080414 
z"/>
<path fill="#2C4EF8" opacity="1.000000" stroke="none" 
	d="
M212.968018,134.647888 
	C208.851181,132.467087 204.748764,129.809738 200.323639,126.540604 
	C200.000610,116.300613 200.054337,106.671822 199.949478,97.044754 
	C199.930908,95.339493 199.251587,93.641426 198.877396,91.940033 
	C202.993912,89.289810 207.110428,86.639580 211.583939,83.932610 
	C212.294342,85.809731 212.943710,87.741997 212.954086,89.677696 
	C213.033539,104.508537 212.988693,119.340042 212.968018,134.647888 
z"/>
<path fill="#1E2149" opacity="1.000000" stroke="none" 
	d="
M221.070068,100.462013 
	C221.413727,103.176247 221.902512,106.353233 221.961533,109.538185 
	C222.081680,116.023643 221.969986,122.513405 221.887695,129.462219 
	C221.546570,124.716110 221.177765,119.511925 221.025238,114.301414 
	C220.894867,109.847504 221.012665,105.386337 221.070068,100.462013 
z"/>
<path fill="#366FF7" opacity="1.000000" stroke="none" 
	d="
M181.040100,115.835663 
	C178.636490,115.227989 176.232895,114.620323 173.434814,114.067841 
	C173.021652,111.059280 173.002975,107.995537 172.996185,104.545349 
	C175.778564,103.182915 178.549057,102.206917 181.852295,101.562103 
	C182.782333,106.622314 184.766998,111.504471 181.040100,115.835663 
z"/>
<path fill="#1A294B" opacity="1.000000" stroke="none" 
	d="
M170.543411,60.387299 
	C170.859955,73.330811 170.880905,86.559349 170.857849,100.226219 
	C170.540085,98.080994 170.035477,95.497650 170.032898,92.913818 
	C170.022186,82.166733 170.162750,71.419502 170.543411,60.387299 
z"/>
<path fill="#1A294B" opacity="1.000000" stroke="none" 
	d="
M170.518280,119.290604 
	C170.890564,131.715302 170.937607,144.408554 170.918274,157.573639 
	C170.567169,156.989014 170.035187,155.932480 170.035629,154.876160 
	C170.040649,143.103806 170.127945,131.331497 170.518280,119.290604 
z"/>
<path fill="#2D58F9" opacity="1.000000" stroke="none" 
	d="
M198.525864,91.971245 
	C199.251587,93.641426 199.930908,95.339493 199.949478,97.044754 
	C200.054337,106.671822 200.000610,116.300613 200.002426,126.387199 
	C197.431641,125.471039 194.859344,124.096497 192.134521,121.941437 
	C191.973068,112.735954 191.964142,104.311012 191.955231,95.886063 
	C194.028275,94.591537 196.101303,93.296997 198.525864,91.971245 
z"/>
<path fill="#3163F8" opacity="1.000000" stroke="none" 
	d="
M191.593567,95.938126 
	C191.964142,104.311012 191.973068,112.735954 191.968170,121.637032 
	C188.524582,120.128975 185.094803,118.144783 181.352570,115.998131 
	C184.766998,111.504471 182.782333,106.622314 182.211761,101.527657 
	C185.102966,99.438080 188.167435,97.714134 191.593567,95.938126 
z"/>
</svg>