<svg width="0" height="0" class="hidden">
  <symbol version="1.1" id="user-icon_adobe_express" xmlns="http://www.w3.org/2000/svg" xmlns:xlink="http://www.w3.org/1999/xlink" x="0px" y="0px" enable-background="new 0 0 256 256" xml:space="preserve" viewBox="0 0 256 256">
    <path fill="#000000" opacity="1.000000" stroke="none" d="
M53.468658,257.000000 
	C47.961212,254.219482 42.402184,252.595245 37.697384,248.972305 
	C27.065136,240.784973 22.028336,230.074554 21.639364,216.862610 
	C21.118593,199.173782 22.234386,181.663330 27.766481,164.720871 
	C32.867138,149.099716 40.888546,135.441406 56.546085,128.343140 
	C64.521576,124.727509 73.181015,122.476242 82.105988,124.707184 
	C87.489937,126.052986 91.785347,129.770309 96.336197,132.731384 
	C106.027916,139.037430 116.569962,143.151764 127.993980,143.343842 
	C137.800644,143.508698 147.352631,140.785645 156.035645,135.816879 
	C159.062531,134.084763 162.093002,132.343857 165.004868,130.429108 
	C170.136993,127.054390 174.972183,123.055321 181.729614,123.754234 
	C193.685898,124.990875 204.748047,128.233826 213.555038,137.087875 
	C227.038528,150.643433 231.735992,167.832886 234.427292,186.007385 
	C235.768906,195.067322 236.435532,204.107819 236.374527,213.260513 
	C236.234818,234.220566 226.028656,248.684662 206.089752,255.770096 
	C205.802460,255.872177 205.594864,256.198517 205.175034,256.710114 
	C154.645767,257.000000 104.291542,257.000000 53.468658,257.000000 
M152.499908,241.645248 
	C165.951431,241.182526 179.392426,241.748840 192.879623,240.921051 
	C208.770782,239.945679 219.707977,228.689209 219.724869,212.329758 
	C219.733307,204.159317 219.078796,196.107635 217.659317,188.090897 
	C215.516891,175.991501 213.160034,163.993317 205.487976,153.825378 
	C200.810196,147.625809 194.891449,143.515625 187.385681,141.413544 
	C180.677368,139.534805 176.242706,143.523895 171.280884,146.732346 
	C152.435028,158.918640 132.207214,163.206863 110.111893,157.452011 
	C99.641594,154.724945 90.509361,149.555801 81.634232,143.664932 
	C79.088852,141.975433 76.720039,140.472778 73.011925,141.079636 
	C55.757942,143.903351 48.609955,156.547302 43.792583,171.016266 
	C38.817120,185.960068 37.481895,201.543137 38.397018,217.254181 
	C38.834530,224.765427 42.209732,230.785522 48.386929,235.321182 
	C55.805775,240.768539 64.451134,241.463272 73.035141,241.548538 
	C99.187798,241.808228 125.344666,241.643936 152.499908,241.645248 
z"></path>
    <path fill="#000000" opacity="1.000000" stroke="none" d="
M141.531342,1.000000 
	C148.567810,4.049359 155.581680,6.023660 161.670242,10.243121 
	C179.924957,22.893908 188.800842,39.955765 189.562332,62.356846 
	C190.550110,91.414139 168.168045,118.071091 141.282318,123.877060 
	C106.171661,131.459198 70.695961,108.848427 65.499031,72.975517 
	C62.596973,52.943428 67.538109,35.330742 80.695358,20.279652 
	C89.308853,10.426330 100.581131,4.381161 113.679306,1.153286 
	C123.020897,1.000000 132.041794,1.000000 141.531342,1.000000 
M158.693146,29.798788 
	C157.130127,28.564970 155.578796,27.316025 154.002350,26.099615 
	C132.646591,9.621249 100.506874,16.213860 87.333099,40.820988 
	C78.030281,58.197594 79.671898,75.004730 91.944611,91.005219 
	C104.754456,107.705978 129.259735,113.190094 148.150452,102.890022 
	C175.777664,87.826424 181.264557,52.740955 158.693146,29.798788 
z"></path>
  </symbol>
  <symbol version="1.1" id="app-store-icon_adobe_express" xmlns="http://www.w3.org/2000/svg" xmlns:xlink="http://www.w3.org/1999/xlink" x="0px" y="0px" enable-background="new 0 0 512 512" xml:space="preserve" viewBox="0 0 512 512">
    <path fill="#000000" opacity="1.000000" stroke="none" d="
M0.999995,427.000000 
	C1.000000,315.311310 1.000000,203.622650 1.390007,91.324966 
	C4.355402,81.467766 6.013302,71.833168 9.709387,63.056953 
	C16.137484,47.793678 26.105200,34.766094 39.164619,24.398060 
	C48.379539,17.082216 58.155910,10.541775 69.548378,7.050216 
	C76.954666,4.780336 84.510925,2.999782 92.000000,1.000000 
	C201.688675,1.000000 311.377350,1.000000 421.680328,1.394082 
	C432.558075,2.457158 442.138824,5.661731 451.405151,9.858987 
	C466.401093,16.651522 479.302582,26.306683 489.598206,39.174515 
	C496.947266,48.359676 503.461334,58.157459 506.950256,69.550331 
	C509.218292,76.956551 511.000275,84.511620 513.000000,92.000000 
	C513.000000,201.688675 513.000000,311.377350 512.605957,421.680328 
	C511.542328,432.557922 508.338379,442.138824 504.141113,451.405151 
	C497.348450,466.401062 487.693268,479.302490 474.825531,489.598145 
	C465.640381,496.947266 455.842529,503.461273 444.449646,506.950226 
	C437.043427,509.218292 429.488373,511.000244 422.000000,513.000000 
	C312.311310,513.000000 202.622650,513.000000 92.319679,512.605957 
	C81.436470,511.544769 71.831329,508.379700 62.589260,504.120575 
	C48.608994,497.677887 36.367191,488.913818 26.407431,476.984833 
	C17.968170,466.877014 10.753234,456.173187 6.786465,443.469421 
	C5.053207,437.918579 2.940423,432.486176 0.999995,427.000000 
M483.000000,232.500000 
	C483.000000,196.841782 483.151947,161.182526 482.908295,125.525978 
	C482.834229,114.694008 482.266327,103.791733 480.871124,93.058601 
	C478.367737,73.800674 467.855377,58.996246 453.047424,47.019981 
	C437.926483,34.790543 419.982147,31.101051 401.211090,31.070137 
	C307.899719,30.916470 214.587845,30.943607 121.276443,31.087250 
	C111.947159,31.101612 102.570717,31.934513 93.301689,33.079720 
	C74.112450,35.450584 59.324783,45.891727 47.378193,60.343102 
	C35.317471,74.932526 31.122705,92.574699 31.085451,111.039398 
	C30.898869,203.517517 30.934431,295.996338 31.087973,388.474548 
	C31.105953,399.303558 31.733652,410.208313 33.128910,420.941467 
	C35.632359,440.199371 46.144733,455.003754 60.952732,466.980042 
	C76.073723,479.209412 94.017891,482.898987 112.788963,482.929871 
	C206.100342,483.083496 299.412201,483.056366 392.723633,482.912720 
	C402.052887,482.898376 411.429352,482.065430 420.698395,480.920288 
	C439.887756,478.549500 454.675262,468.108063 466.621857,453.656799 
	C478.682648,439.067413 482.835358,421.426056 482.913361,402.960236 
	C483.151917,346.474365 483.000000,289.986877 483.000000,232.500000 
z"></path>
    <path fill="#FFFFFF" opacity="1.000000" stroke="none" d="
M513.000000,91.531342 
	C511.000275,84.511620 509.218292,76.956551 506.950256,69.550331 
	C503.461334,58.157459 496.947266,48.359676 489.598206,39.174515 
	C479.302582,26.306683 466.401093,16.651522 451.405151,9.858987 
	C442.138824,5.661731 432.558075,2.457158 422.147308,1.394082 
	C452.260254,1.000000 482.520508,1.000000 513.000000,1.000000 
	C513.000000,31.020538 513.000000,61.041611 513.000000,91.531342 
z"></path>
    <path fill="#FFFFFF" opacity="1.000000" stroke="none" d="
M422.468658,513.000000 
	C429.488373,511.000244 437.043427,509.218292 444.449646,506.950226 
	C455.842529,503.461273 465.640381,496.947266 474.825531,489.598145 
	C487.693268,479.302490 497.348450,466.401062 504.141113,451.405151 
	C508.338379,442.138824 511.542328,432.557922 512.605957,422.147308 
	C513.000000,452.260254 513.000000,482.520508 513.000000,513.000000 
	C482.979462,513.000000 452.958374,513.000000 422.468658,513.000000 
z"></path>
    <path fill="#FFFFFF" opacity="1.000000" stroke="none" d="
M91.531342,1.000000 
	C84.510925,2.999782 76.954666,4.780336 69.548378,7.050216 
	C58.155910,10.541775 48.379539,17.082216 39.164619,24.398060 
	C26.105200,34.766094 16.137484,47.793678 9.709387,63.056953 
	C6.013302,71.833168 4.355402,81.467766 1.390007,90.857979 
	C1.000000,61.072678 1.000000,31.145357 1.000000,1.000000 
	C31.020542,1.000000 61.041615,1.000000 91.531342,1.000000 
z"></path>
    <path fill="#FFFFFF" opacity="1.000000" stroke="none" d="
M0.999995,427.468658 
	C2.940423,432.486176 5.053207,437.918579 6.786465,443.469421 
	C10.753234,456.173187 17.968170,466.877014 26.407431,476.984833 
	C36.367191,488.913818 48.608994,497.677887 62.589260,504.120575 
	C71.831329,508.379700 81.436470,511.544769 91.852692,512.605957 
	C61.741821,513.000000 31.483644,513.000000 1.000000,513.000000 
	C1.000000,484.646179 1.000000,456.291748 0.999995,427.468658 
z"></path>
    <path fill="#FFFFFF" opacity="1.000000" stroke="none" d="
M483.000000,233.000000 
	C483.000000,289.986877 483.151917,346.474365 482.913361,402.960236 
	C482.835358,421.426056 478.682648,439.067413 466.621857,453.656799 
	C454.675262,468.108063 439.887756,478.549500 420.698395,480.920288 
	C411.429352,482.065430 402.052887,482.898376 392.723633,482.912720 
	C299.412201,483.056366 206.100342,483.083496 112.788963,482.929871 
	C94.017891,482.898987 76.073723,479.209412 60.952732,466.980042 
	C46.144733,455.003754 35.632359,440.199371 33.128910,420.941467 
	C31.733652,410.208313 31.105953,399.303558 31.087973,388.474548 
	C30.934431,295.996338 30.898869,203.517517 31.085451,111.039398 
	C31.122705,92.574699 35.317471,74.932526 47.378193,60.343102 
	C59.324783,45.891727 74.112450,35.450584 93.301689,33.079720 
	C102.570717,31.934513 111.947159,31.101612 121.276443,31.087250 
	C214.587845,30.943607 307.899719,30.916470 401.211090,31.070137 
	C419.982147,31.101051 437.926483,34.790543 453.047424,47.019981 
	C467.855377,58.996246 478.367737,73.800674 480.871124,93.058601 
	C482.266327,103.791733 482.834229,114.694008 482.908295,125.525978 
	C483.151947,161.182526 483.000000,196.841782 483.000000,233.000000 
M297.222839,110.020332 
	C289.908844,105.449341 282.062012,104.736053 273.903381,107.024971 
	C265.493439,109.384399 261.478943,116.619850 256.830475,123.693817 
	C250.998932,112.765152 243.787872,105.728920 230.761307,105.811447 
	C212.407516,105.927734 200.074524,125.911072 208.720551,142.176758 
	C214.148071,152.387497 220.125656,162.304825 225.724548,172.426743 
	C226.427765,173.698059 227.061523,175.827301 226.482407,176.862549 
	C220.206970,188.080887 213.683426,199.160461 207.225616,210.276749 
	C199.152313,224.173874 191.079437,238.071259 183.002182,251.966095 
	C175.814468,264.330688 168.492996,276.620697 161.536285,289.113831 
	C160.114700,291.666748 158.558960,292.047882 156.089188,292.035828 
	C141.259674,291.963593 126.422760,291.748413 111.603889,292.152313 
	C107.120605,292.274475 102.322350,293.475311 98.302094,295.463501 
	C88.255104,300.432190 83.590355,312.829742 87.094063,324.842499 
	C89.783379,334.063019 99.376396,342.075439 109.943352,342.056244 
	C172.595184,341.942291 235.247345,342.000000 297.899384,342.000000 
	C299.121246,342.000000 300.343109,342.000000 302.034454,342.000000 
	C292.259674,325.008698 282.823822,308.606537 273.279907,292.016541 
	C255.499710,292.016541 237.528778,292.016541 219.267212,292.016541 
	C228.033401,276.611603 236.595383,261.395416 245.322937,246.274750 
	C254.643799,230.126221 264.184418,214.104553 273.512177,197.959961 
	C282.918823,181.678833 291.595947,164.941498 301.686493,149.100784 
	C310.333496,135.526260 310.511749,121.107719 297.222839,110.020332 
M278.998322,264.497681 
	C280.245209,266.745453 281.454102,269.015289 282.745148,271.237396 
	C290.816833,285.129944 298.944305,298.990204 306.979584,312.903717 
	C313.968048,325.004730 320.822021,337.183411 327.803131,349.288727 
	C335.829041,363.205688 344.159943,376.952576 351.918335,391.016052 
	C357.321686,400.810547 363.994812,407.528320 376.142578,408.256226 
	C389.011719,409.027344 401.333618,398.361511 402.192963,385.592407 
	C402.888367,375.259369 397.581818,367.686798 393.039459,359.554413 
	C389.814850,353.781311 386.497284,348.060150 383.041107,342.000000 
	C390.388580,342.000000 397.075684,342.345978 403.703308,341.867950 
	C407.570679,341.589050 411.688324,340.651184 415.094116,338.866302 
	C425.800690,333.255341 430.328918,321.860504 426.923309,309.358185 
	C424.486420,300.412231 414.794189,291.511017 402.772217,291.887451 
	C387.796234,292.356384 372.794067,291.948517 357.804077,292.049744 
	C355.251068,292.066956 353.650177,291.590179 352.404541,289.027405 
	C350.092682,284.271027 347.285248,279.752472 344.626129,275.168549 
	C332.614532,254.462265 320.596313,233.759796 308.549591,213.073944 
	C304.949921,206.892883 301.250092,200.770187 297.264832,194.063187 
	C287.488892,211.070847 278.184052,227.147659 269.080719,243.337784 
	C268.449799,244.459885 268.886139,246.649567 269.565491,247.959244 
	C272.374695,253.374908 275.468597,258.642883 278.998322,264.497681 
M118.131088,364.356720 
	C117.752319,365.065613 117.439133,365.819855 116.985062,366.476685 
	C108.109779,379.315369 110.705719,396.394409 122.857208,404.331390 
	C132.615112,410.704926 149.378128,409.786255 156.770050,398.672699 
	C161.042694,392.248901 165.019928,385.622711 168.971756,378.993225 
	C172.195267,373.585510 175.183716,368.037689 178.587418,362.000305 
	C158.910248,362.000305 140.254700,361.973846 121.599861,362.076416 
	C120.643265,362.081665 119.692741,363.193451 118.131088,364.356720 
z"></path>
    <path fill="#000000" opacity="1.000000" stroke="none" d="
M297.556610,110.191528 
	C310.511749,121.107719 310.333496,135.526260 301.686493,149.100784 
	C291.595947,164.941498 282.918823,181.678833 273.512177,197.959961 
	C264.184418,214.104553 254.643799,230.126221 245.322937,246.274750 
	C236.595383,261.395416 228.033401,276.611603 219.267212,292.016541 
	C237.528778,292.016541 255.499710,292.016541 273.279907,292.016541 
	C282.823822,308.606537 292.259674,325.008698 302.034454,342.000000 
	C300.343109,342.000000 299.121246,342.000000 297.899384,342.000000 
	C235.247345,342.000000 172.595184,341.942291 109.943352,342.056244 
	C99.376396,342.075439 89.783379,334.063019 87.094063,324.842499 
	C83.590355,312.829742 88.255104,300.432190 98.302094,295.463501 
	C102.322350,293.475311 107.120605,292.274475 111.603889,292.152313 
	C126.422760,291.748413 141.259674,291.963593 156.089188,292.035828 
	C158.558960,292.047882 160.114700,291.666748 161.536285,289.113831 
	C168.492996,276.620697 175.814468,264.330688 183.002182,251.966095 
	C191.079437,238.071259 199.152313,224.173874 207.225616,210.276749 
	C213.683426,199.160461 220.206970,188.080887 226.482407,176.862549 
	C227.061523,175.827301 226.427765,173.698059 225.724548,172.426743 
	C220.125656,162.304825 214.148071,152.387497 208.720551,142.176758 
	C200.074524,125.911072 212.407516,105.927734 230.761307,105.811447 
	C243.787872,105.728920 250.998932,112.765152 256.830475,123.693817 
	C261.478943,116.619850 265.493439,109.384399 273.903381,107.024971 
	C282.062012,104.736053 289.908844,105.449341 297.556610,110.191528 
z"></path>
    <path fill="#000000" opacity="1.000000" stroke="none" d="
M278.728119,264.231384 
	C275.468597,258.642883 272.374695,253.374908 269.565491,247.959244 
	C268.886139,246.649567 268.449799,244.459885 269.080719,243.337784 
	C278.184052,227.147659 287.488892,211.070847 297.264832,194.063187 
	C301.250092,200.770187 304.949921,206.892883 308.549591,213.073944 
	C320.596313,233.759796 332.614532,254.462265 344.626129,275.168549 
	C347.285248,279.752472 350.092682,284.271027 352.404541,289.027405 
	C353.650177,291.590179 355.251068,292.066956 357.804077,292.049744 
	C372.794067,291.948517 387.796234,292.356384 402.772217,291.887451 
	C414.794189,291.511017 424.486420,300.412231 426.923309,309.358185 
	C430.328918,321.860504 425.800690,333.255341 415.094116,338.866302 
	C411.688324,340.651184 407.570679,341.589050 403.703308,341.867950 
	C397.075684,342.345978 390.388580,342.000000 383.041107,342.000000 
	C386.497284,348.060150 389.814850,353.781311 393.039459,359.554413 
	C397.581818,367.686798 402.888367,375.259369 402.192963,385.592407 
	C401.333618,398.361511 389.011719,409.027344 376.142578,408.256226 
	C363.994812,407.528320 357.321686,400.810547 351.918335,391.016052 
	C344.159943,376.952576 335.829041,363.205688 327.803131,349.288727 
	C320.822021,337.183411 313.968048,325.004730 306.979584,312.903717 
	C298.944305,298.990204 290.816833,285.129944 282.745148,271.237396 
	C281.454102,269.015289 280.245209,266.745453 278.728119,264.231384 
z"></path>
    <path fill="#000000" opacity="1.000000" stroke="none" d="
M118.435242,364.073364 
	C119.692741,363.193451 120.643265,362.081665 121.599861,362.076416 
	C140.254700,361.973846 158.910248,362.000305 178.587418,362.000305 
	C175.183716,368.037689 172.195267,373.585510 168.971756,378.993225 
	C165.019928,385.622711 161.042694,392.248901 156.770050,398.672699 
	C149.378128,409.786255 132.615112,410.704926 122.857208,404.331390 
	C110.705719,396.394409 108.109779,379.315369 116.985062,366.476685 
	C117.439133,365.819855 117.752319,365.065613 118.435242,364.073364 
z"></path>
  </symbol>
  <symbol version="1.1" id="stripe-icon_adobe_express" xmlns="http://www.w3.org/2000/svg" xmlns:xlink="http://www.w3.org/1999/xlink" x="0px" y="0px" enable-background="new 0 0 512 512" xml:space="preserve" viewBox="0 0 512 512">
    <path fill="#000000" opacity="1.000000" stroke="none" d="
M499.004883,513.000000 
	C332.670258,513.000000 166.837112,513.000000 1.002964,513.000000 
	C1.001976,342.334839 1.001976,171.669662 1.000988,1.003376 
	C171.664978,1.002251 342.329956,1.002251 512.996216,1.001125 
	C512.997437,171.664795 512.997437,342.329590 512.998718,512.997192 
	C508.502106,513.000000 504.004242,513.000000 499.004883,513.000000 
z"></path>
  </symbol>
</svg>