<svg version="1.1" id="Layer_1" xmlns="http://www.w3.org/2000/svg" xmlns:xlink="http://www.w3.org/1999/xlink" x="0px" y="0px"
	 width="100%" viewBox="0 0 256 256" enable-background="new 0 0 256 256" xml:space="preserve">
<path fill="#000000" opacity="1.000000" stroke="none" 
	d="
M53.468658,257.000000 
	C47.961212,254.219482 42.402184,252.595245 37.697384,248.972305 
	C27.065136,240.784973 22.028336,230.074554 21.639364,216.862610 
	C21.118593,199.173782 22.234386,181.663330 27.766481,164.720871 
	C32.867138,149.099716 40.888546,135.441406 56.546085,128.343140 
	C64.521576,124.727509 73.181015,122.476242 82.105988,124.707184 
	C87.489937,126.052986 91.785347,129.770309 96.336197,132.731384 
	C106.027916,139.037430 116.569962,143.151764 127.993980,143.343842 
	C137.800644,143.508698 147.352631,140.785645 156.035645,135.816879 
	C159.062531,134.084763 162.093002,132.343857 165.004868,130.429108 
	C170.136993,127.054390 174.972183,123.055321 181.729614,123.754234 
	C193.685898,124.990875 204.748047,128.233826 213.555038,137.087875 
	C227.038528,150.643433 231.735992,167.832886 234.427292,186.007385 
	C235.768906,195.067322 236.435532,204.107819 236.374527,213.260513 
	C236.234818,234.220566 226.028656,248.684662 206.089752,255.770096 
	C205.802460,255.872177 205.594864,256.198517 205.175034,256.710114 
	C154.645767,257.000000 104.291542,257.000000 53.468658,257.000000 
M152.499908,241.645248 
	C165.951431,241.182526 179.392426,241.748840 192.879623,240.921051 
	C208.770782,239.945679 219.707977,228.689209 219.724869,212.329758 
	C219.733307,204.159317 219.078796,196.107635 217.659317,188.090897 
	C215.516891,175.991501 213.160034,163.993317 205.487976,153.825378 
	C200.810196,147.625809 194.891449,143.515625 187.385681,141.413544 
	C180.677368,139.534805 176.242706,143.523895 171.280884,146.732346 
	C152.435028,158.918640 132.207214,163.206863 110.111893,157.452011 
	C99.641594,154.724945 90.509361,149.555801 81.634232,143.664932 
	C79.088852,141.975433 76.720039,140.472778 73.011925,141.079636 
	C55.757942,143.903351 48.609955,156.547302 43.792583,171.016266 
	C38.817120,185.960068 37.481895,201.543137 38.397018,217.254181 
	C38.834530,224.765427 42.209732,230.785522 48.386929,235.321182 
	C55.805775,240.768539 64.451134,241.463272 73.035141,241.548538 
	C99.187798,241.808228 125.344666,241.643936 152.499908,241.645248 
z"/>
<path fill="#000000" opacity="1.000000" stroke="none" 
	d="
M141.531342,1.000000 
	C148.567810,4.049359 155.581680,6.023660 161.670242,10.243121 
	C179.924957,22.893908 188.800842,39.955765 189.562332,62.356846 
	C190.550110,91.414139 168.168045,118.071091 141.282318,123.877060 
	C106.171661,131.459198 70.695961,108.848427 65.499031,72.975517 
	C62.596973,52.943428 67.538109,35.330742 80.695358,20.279652 
	C89.308853,10.426330 100.581131,4.381161 113.679306,1.153286 
	C123.020897,1.000000 132.041794,1.000000 141.531342,1.000000 
M158.693146,29.798788 
	C157.130127,28.564970 155.578796,27.316025 154.002350,26.099615 
	C132.646591,9.621249 100.506874,16.213860 87.333099,40.820988 
	C78.030281,58.197594 79.671898,75.004730 91.944611,91.005219 
	C104.754456,107.705978 129.259735,113.190094 148.150452,102.890022 
	C175.777664,87.826424 181.264557,52.740955 158.693146,29.798788 
z"/>
</svg>